# xmcd
#
# Track frame offsets:
#	182
#	12025
#	23852
#	36205
#	48655
#	62930
#	76075
#	98280
#	112705
#	123857
#	135997
#	146905
#	158320
#	171835
#	180392
#	189887
#	204545
#
# Disc length: 3037 seconds
#
# Revision: 0
# Processed by: cddbd v1.4PL0 Copyright (c) Steve Scherf et al.
# Submitted via: dBpowerAMP V4.0
#
DISCID=c70bdb11
DTITLE=The Platters - 16 Greatest Hits
DYEAR=1990
DGENRE=Ballad
TTITLE0=Only you
TTITLE1=The great pretender
TTITLE2=My prayer
TTITLE3=Twilight time
TTITLE4=Harbour Lights
TTITLE5=I'm sorry
TTITLE6=Unchained melody
TTITLE7=I love you because
TTITLE8=The magic touch
TTITLE9=Smoke gets in your eyes
TTITLE10=Red sails in the sunset
TTITLE11=Heaven on earth
TTITLE12=Alone in the night
TTITLE13=Sweet sweet lovin'
TTITLE14=Doesn't ring a bell
TTITLE15=Why
TTITLE16=My way
EXTD=
EXTT0=
EXTT1=
EXTT2=
EXTT3=
EXTT4=
EXTT5=
EXTT6=
EXTT7=
EXTT8=
EXTT9=
EXTT10=
EXTT11=
EXTT12=
EXTT13=
EXTT14=
EXTT15=
EXTT16=
PLAYORDER=
